<?xml version="1.0" encoding="utf-8"?>
<!-- Generator: Adobe Illustrator 16.0.1, SVG Export Plug-In . SVG Version: 6.00 Build 0)  -->
<!DOCTYPE svg PUBLIC "-//W3C//DTD SVG 1.1//EN" "http://www.w3.org/Graphics/SVG/1.1/DTD/svg11.dtd">
<svg version="1.1" id="Layer_1" xmlns="http://www.w3.org/2000/svg" xmlns:xlink="http://www.w3.org/1999/xlink" x="0px" y="0px"
	 width="1510.87px" height="283.46px" viewBox="0 0 1510.87 283.46" enable-background="new 0 0 1510.87 283.46"
	 xml:space="preserve">
<g>
	<g>
		<path fill="#346373" stroke="#336373" stroke-width="2" stroke-miterlimit="10" d="M365.396,109.595v58.711h12.773
			c1.172,0,2.011,0.225,2.52,0.674c0.507,0.449,0.762,1.045,0.762,1.787c0,0.703-0.254,1.289-0.762,1.758
			c-0.508,0.469-1.348,0.703-2.52,0.703h-30.527c-1.172,0-2.012-0.234-2.52-0.703c-0.508-0.469-0.762-1.055-0.762-1.758
			c0-0.742,0.253-1.338,0.762-1.787c0.507-0.449,1.348-0.674,2.52-0.674h12.773v-58.711h-20.156v17.051
			c0,1.211-0.225,2.071-0.674,2.578c-0.45,0.508-1.045,0.762-1.787,0.762c-0.703,0-1.289-0.253-1.758-0.762
			c-0.469-0.507-0.703-1.367-0.703-2.578v-21.973h55.137v21.973c0,1.211-0.225,2.071-0.674,2.578
			c-0.45,0.508-1.045,0.762-1.787,0.762c-0.743,0-1.338-0.253-1.787-0.762c-0.45-0.507-0.674-1.367-0.674-2.578v-17.051H365.396z"/>
		<path fill="#346373" stroke="#336373" stroke-width="2" stroke-miterlimit="10" d="M429.087,122.486v12.422
			c6.406-5.781,11.201-9.501,14.385-11.162c3.183-1.66,6.123-2.49,8.818-2.49c2.93,0,5.654,0.987,8.174,2.959
			c2.52,1.973,3.779,3.467,3.779,4.482c0,0.743-0.245,1.358-0.732,1.846c-0.489,0.489-1.104,0.732-1.846,0.732
			c-0.391,0-0.723-0.068-0.996-0.205c-0.274-0.136-0.782-0.576-1.523-1.318c-1.368-1.367-2.559-2.304-3.574-2.813
			c-1.016-0.507-2.012-0.762-2.988-0.762c-2.149,0-4.737,0.86-7.764,2.578c-3.028,1.719-8.272,5.918-15.732,12.598v26.954h21.797
			c1.21,0,2.07,0.225,2.578,0.674c0.507,0.449,0.762,1.045,0.762,1.787c0,0.703-0.254,1.289-0.762,1.758
			c-0.508,0.469-1.368,0.703-2.578,0.703h-38.613c-1.172,0-2.012-0.225-2.52-0.674c-0.508-0.449-0.762-1.025-0.762-1.729
			c0-0.664,0.244-1.221,0.732-1.67c0.488-0.449,1.337-0.674,2.549-0.674h11.895v-41.016h-9.082c-1.172,0-2.012-0.234-2.52-0.703
			c-0.508-0.469-0.762-1.074-0.762-1.816c0-0.703,0.244-1.289,0.732-1.758c0.488-0.469,1.337-0.703,2.549-0.703H429.087z"/>
		<path fill="#346373" stroke="#336373" stroke-width="2" stroke-miterlimit="10" d="M534.497,147.975
			c0,7.5-2.686,13.906-8.057,19.219c-5.372,5.313-11.846,7.969-19.424,7.969c-7.657,0-14.161-2.666-19.512-7.998
			c-5.352-5.332-8.027-11.729-8.027-19.189c0-7.5,2.675-13.917,8.027-19.249c5.351-5.332,11.855-7.998,19.512-7.998
			c7.578,0,14.052,2.657,19.424,7.969C531.811,134.01,534.497,140.436,534.497,147.975z M529.517,147.975
			c0-6.172-2.197-11.426-6.592-15.762s-9.717-6.504-15.967-6.504c-6.25,0-11.572,2.178-15.967,6.533
			c-4.395,4.356-6.592,9.6-6.592,15.733c0,6.094,2.197,11.328,6.592,15.703s9.716,6.563,15.967,6.563
			c6.25,0,11.572-2.178,15.967-6.533S529.517,154.107,529.517,147.975z"/>
		<path fill="#346373" stroke="#336373" stroke-width="2" stroke-miterlimit="10" d="M560.454,122.486v8.965
			c2.93-3.554,6.074-6.23,9.434-8.027c3.359-1.796,7.324-2.695,11.895-2.695c4.843,0,9.316,1.133,13.418,3.398
			c4.102,2.266,7.275,5.42,9.521,9.463c2.246,4.043,3.369,8.291,3.369,12.745c0,7.07-2.53,13.115-7.588,18.135
			c-5.059,5.02-11.279,7.529-18.662,7.529c-8.789,0-15.918-3.574-21.387-10.723v29.648h11.953c1.172,0,2.011,0.224,2.52,0.674
			c0.507,0.448,0.762,1.044,0.762,1.787c0,0.703-0.254,1.289-0.762,1.758c-0.508,0.469-1.348,0.703-2.52,0.703h-23.496
			c-1.172,0-2.012-0.226-2.52-0.674c-0.508-0.45-0.762-1.046-0.762-1.787c0-0.743,0.253-1.339,0.762-1.787
			c0.507-0.45,1.348-0.674,2.52-0.674h6.621v-63.458h-6.621c-1.172,0-2.012-0.234-2.52-0.703c-0.508-0.469-0.762-1.074-0.762-1.816
			c0-0.703,0.253-1.289,0.762-1.758c0.507-0.469,1.348-0.703,2.52-0.703H560.454z M603.11,146.334
			c0-5.664-2.061-10.518-6.182-14.561c-4.122-4.043-9.151-6.064-15.088-6.064c-5.977,0-11.036,2.032-15.176,6.094
			c-4.141,4.063-6.211,8.906-6.211,14.532c0,5.664,2.07,10.527,6.211,14.59c4.14,4.063,9.199,6.094,15.176,6.094
			c5.898,0,10.917-2.021,15.059-6.064C601.04,156.91,603.11,152.037,603.11,146.334z"/>
		<path fill="#346373" stroke="#336373" stroke-width="2" stroke-miterlimit="10" d="M653.618,122.486v45.821h19.336
			c1.21,0,2.07,0.225,2.578,0.674c0.507,0.449,0.762,1.045,0.762,1.787c0,0.703-0.254,1.289-0.762,1.758
			c-0.508,0.469-1.368,0.703-2.578,0.703H629.36c-1.172,0-2.012-0.234-2.52-0.703c-0.508-0.469-0.762-1.055-0.762-1.758
			c0-0.742,0.253-1.338,0.762-1.787c0.507-0.449,1.348-0.674,2.52-0.674h19.336v-40.84h-14.355c-1.172,0-2.021-0.234-2.549-0.703
			s-0.791-1.055-0.791-1.758c0-0.742,0.253-1.348,0.762-1.816c0.507-0.469,1.367-0.703,2.578-0.703H653.618z M653.442,97.232v12.715
			h-7.266V97.232H653.442z"/>
		<path fill="#346373" stroke="#336373" stroke-width="2" stroke-miterlimit="10" d="M743.56,127.466v-1.641
			c0-1.21,0.234-2.07,0.703-2.578c0.469-0.507,1.055-0.762,1.758-0.762c0.741,0,1.348,0.254,1.816,0.762
			c0.469,0.508,0.703,1.368,0.703,2.578v11.133c-0.039,1.211-0.284,2.071-0.732,2.578c-0.449,0.508-1.046,0.762-1.787,0.762
			c-0.665,0-1.222-0.224-1.67-0.674c-0.449-0.449-0.713-1.201-0.791-2.256c-0.234-2.773-2.061-5.41-5.479-7.91
			c-3.419-2.5-8.019-3.75-13.799-3.75c-7.305,0-12.853,2.285-16.641,6.855c-3.789,4.57-5.684,9.805-5.684,15.704
			c0,6.367,2.089,11.621,6.27,15.762c4.18,4.141,9.589,6.211,16.23,6.211c3.828,0,7.725-0.703,11.689-2.109
			c3.964-1.406,7.549-3.672,10.752-6.797c0.82-0.781,1.543-1.172,2.168-1.172c0.664,0,1.221,0.225,1.67,0.674
			c0.448,0.449,0.674,1.006,0.674,1.67c0,1.68-1.973,3.809-5.918,6.387c-6.367,4.18-13.457,6.27-21.27,6.27
			c-7.931,0-14.443-2.529-19.541-7.588s-7.646-11.475-7.646-19.248c0-7.93,2.607-14.512,7.822-19.747
			c5.215-5.234,11.786-7.852,19.717-7.852C732.113,120.728,738.441,122.975,743.56,127.466z"/>
		<path fill="#346373" stroke="#336373" stroke-width="2" stroke-miterlimit="10" d="M809.185,173.229v-7.09
			c-7.148,6.016-14.786,9.023-22.91,9.023c-5.898,0-10.509-1.494-13.828-4.482c-3.32-2.988-4.98-6.65-4.98-10.986
			c0-4.766,2.188-8.926,6.563-12.48c4.374-3.555,10.761-5.333,19.16-5.333c2.265,0,4.726,0.146,7.383,0.439
			c2.656,0.293,5.527,0.752,8.613,1.377v-7.969c0-2.695-1.251-5.039-3.75-7.031c-2.5-1.992-6.25-2.988-11.25-2.988
			c-3.829,0-9.199,1.113-16.113,3.34c-1.251,0.391-2.051,0.586-2.402,0.586c-0.625,0-1.163-0.234-1.611-0.703
			c-0.449-0.469-0.674-1.055-0.674-1.758c0-0.664,0.195-1.191,0.586-1.582c0.547-0.586,2.754-1.386,6.621-2.402
			c6.094-1.641,10.702-2.461,13.828-2.461c6.211,0,11.054,1.534,14.531,4.6c3.477,3.067,5.215,6.533,5.215,10.4v32.579h6.563
			c1.21,0,2.07,0.225,2.578,0.674c0.507,0.449,0.762,1.045,0.762,1.787c0,0.703-0.255,1.289-0.762,1.758
			c-0.508,0.469-1.368,0.703-2.578,0.703H809.185z M809.185,148.736c-2.306-0.664-4.746-1.152-7.324-1.465s-5.294-0.469-8.145-0.469
			c-7.148,0-12.735,1.543-16.758,4.629c-3.047,2.305-4.57,5.059-4.57,8.262c0,2.969,1.162,5.469,3.486,7.5
			c2.323,2.031,5.713,3.047,10.166,3.047c4.257,0,8.212-0.85,11.865-2.549c3.652-1.699,7.412-4.404,11.279-8.115V148.736z"/>
		<path fill="#346373" stroke="#336373" stroke-width="2" stroke-miterlimit="10" d="M869.536,99.693v68.614h19.336
			c1.21,0,2.07,0.225,2.578,0.674c0.507,0.449,0.762,1.045,0.762,1.787c0,0.703-0.255,1.289-0.762,1.758
			c-0.508,0.469-1.368,0.703-2.578,0.703h-43.594c-1.172,0-2.013-0.234-2.52-0.703c-0.508-0.469-0.762-1.055-0.762-1.758
			c0-0.742,0.254-1.338,0.762-1.787c0.507-0.449,1.348-0.674,2.52-0.674h19.336v-63.633h-14.18c-1.172,0-2.021-0.234-2.549-0.703
			s-0.791-1.074-0.791-1.816c0-0.703,0.254-1.289,0.762-1.758c0.507-0.469,1.367-0.703,2.578-0.703H869.536z"/>
		<path fill="#346373" stroke="#336373" stroke-width="2" stroke-miterlimit="10" d="M1013.56,109.595v58.711h16.875
			c1.172,0,2.012,0.225,2.52,0.674c0.507,0.449,0.762,1.045,0.762,1.787c0,0.703-0.255,1.289-0.762,1.758
			c-0.508,0.469-1.348,0.703-2.52,0.703h-38.672c-1.172,0-2.013-0.234-2.52-0.703c-0.508-0.469-0.762-1.055-0.762-1.758
			c0-0.742,0.254-1.338,0.762-1.787c0.507-0.449,1.348-0.674,2.52-0.674h16.875v-58.711h-16.875c-1.172,0-2.013-0.224-2.52-0.674
			c-0.508-0.449-0.762-1.044-0.762-1.787c0-0.742,0.254-1.337,0.762-1.787c0.507-0.449,1.348-0.674,2.52-0.674h38.672
			c1.172,0,2.012,0.225,2.52,0.674c0.507,0.45,0.762,1.045,0.762,1.787c0,0.743-0.255,1.338-0.762,1.787
			c-0.508,0.45-1.348,0.674-2.52,0.674H1013.56z"/>
		<path fill="#346373" stroke="#336373" stroke-width="2" stroke-miterlimit="10" d="M1067.173,122.486v7.441
			c3.437-3.476,6.542-5.878,9.316-7.207c2.773-1.328,5.897-1.992,9.375-1.992c3.75,0,7.168,0.801,10.254,2.402
			c2.188,1.172,4.169,3.116,5.947,5.83c1.777,2.715,2.666,5.499,2.666,8.35v30.997h4.16c1.172,0,2.012,0.225,2.52,0.674
			c0.507,0.449,0.762,1.045,0.762,1.787c0,0.703-0.255,1.289-0.762,1.758c-0.508,0.469-1.348,0.703-2.52,0.703h-13.184
			c-1.211,0-2.071-0.234-2.578-0.703c-0.508-0.469-0.762-1.055-0.762-1.758c0-0.742,0.254-1.338,0.762-1.787
			c0.507-0.449,1.367-0.674,2.578-0.674h4.102V138.13c0-3.476-1.27-6.416-3.809-8.818c-2.54-2.402-5.938-3.604-10.195-3.604
			c-3.243,0-6.056,0.655-8.438,1.963c-2.383,1.309-5.781,4.561-10.195,9.756v30.879h5.566c1.172,0,2.012,0.225,2.52,0.674
			c0.507,0.449,0.762,1.045,0.762,1.787c0,0.703-0.255,1.289-0.762,1.758c-0.508,0.469-1.348,0.703-2.52,0.703h-16.055
			c-1.172,0-2.013-0.234-2.52-0.703c-0.508-0.469-0.762-1.055-0.762-1.758c0-0.742,0.254-1.338,0.762-1.787
			c0.507-0.449,1.348-0.674,2.52-0.674h5.566v-40.84h-4.16c-1.172,0-2.013-0.234-2.52-0.703c-0.508-0.469-0.762-1.074-0.762-1.816
			c0-0.703,0.254-1.289,0.762-1.758c0.507-0.469,1.348-0.703,2.52-0.703H1067.173z"/>
		<path fill="#346373" stroke="#336373" stroke-width="2" stroke-miterlimit="10" d="M1171.353,125.708
			c0-1.132,0.234-1.953,0.703-2.461c0.469-0.507,1.055-0.762,1.758-0.762c0.741,0,1.348,0.254,1.816,0.762
			c0.469,0.508,0.703,1.368,0.703,2.578v8.438c0,1.172-0.234,2.012-0.703,2.52c-0.469,0.508-1.075,0.762-1.816,0.762
			c-0.665,0-1.222-0.214-1.67-0.645c-0.449-0.429-0.713-1.132-0.791-2.109c-0.234-2.344-1.445-4.277-3.633-5.801
			c-3.203-2.187-7.441-3.281-12.715-3.281c-5.508,0-9.785,1.113-12.832,3.34c-2.306,1.68-3.457,3.555-3.457,5.625
			c0,2.344,1.367,4.297,4.102,5.859c1.875,1.094,5.429,1.934,10.664,2.52c6.835,0.742,11.581,1.582,14.238,2.52
			c3.788,1.367,6.611,3.262,8.467,5.684c1.854,2.422,2.783,5.039,2.783,7.852c0,4.18-2.013,7.9-6.035,11.162
			c-4.023,3.261-9.923,4.893-17.695,4.893c-7.773,0-14.142-1.973-19.102-5.918c0,1.328-0.079,2.188-0.234,2.578
			c-0.156,0.391-0.439,0.723-0.85,0.996s-0.87,0.41-1.377,0.41c-0.703,0-1.289-0.254-1.758-0.762s-0.703-1.348-0.703-2.52v-10.137
			c0-1.172,0.225-2.012,0.674-2.52c0.448-0.508,1.045-0.762,1.787-0.762c0.703,0,1.298,0.244,1.787,0.732
			c0.488,0.488,0.732,1.143,0.732,1.963c0,1.797,0.448,3.301,1.348,4.512c1.367,1.875,3.545,3.428,6.533,4.658
			s6.65,1.846,10.986,1.846c6.406,0,11.171-1.191,14.297-3.574c3.125-2.383,4.688-4.902,4.688-7.559
			c0-3.047-1.582-5.488-4.746-7.324c-3.203-1.836-7.861-3.066-13.975-3.691c-6.114-0.625-10.498-1.445-13.154-2.461
			c-2.657-1.016-4.727-2.539-6.211-4.571c-1.485-2.031-2.227-4.219-2.227-6.563c0-4.219,2.07-7.568,6.211-10.049
			c4.14-2.48,9.082-3.721,14.824-3.721C1161.567,120.728,1167.095,122.389,1171.353,125.708z"/>
		<path fill="#346373" stroke="#336373" stroke-width="2" stroke-miterlimit="10" d="M1229.712,122.486v45.821h19.336
			c1.21,0,2.07,0.225,2.578,0.674c0.507,0.449,0.762,1.045,0.762,1.787c0,0.703-0.255,1.289-0.762,1.758
			c-0.508,0.469-1.368,0.703-2.578,0.703h-43.594c-1.172,0-2.013-0.234-2.52-0.703c-0.508-0.469-0.762-1.055-0.762-1.758
			c0-0.742,0.254-1.338,0.762-1.787c0.507-0.449,1.348-0.674,2.52-0.674h19.336v-40.84h-14.355c-1.172,0-2.021-0.234-2.549-0.703
			s-0.791-1.055-0.791-1.758c0-0.742,0.254-1.348,0.762-1.816c0.507-0.469,1.367-0.703,2.578-0.703H1229.712z M1229.536,97.232
			v12.715h-7.266V97.232H1229.536z"/>
		<path fill="#346373" stroke="#336373" stroke-width="2" stroke-miterlimit="10" d="M1315.669,131.509v-9.023h11.543
			c1.172,0,2.012,0.234,2.52,0.703c0.507,0.469,0.762,1.075,0.762,1.816c0,0.703-0.255,1.289-0.762,1.758
			c-0.508,0.469-1.348,0.703-2.52,0.703h-6.621v49.161c0,3.281-0.703,6.211-2.109,8.789c-0.938,1.718-2.5,3.495-4.688,5.332
			c-2.188,1.835-4.181,3.144-5.977,3.926c-1.797,0.78-4.199,1.172-7.207,1.172h-13.945c-1.172,0-2.013-0.226-2.52-0.674
			c-0.508-0.45-0.762-1.046-0.762-1.787c0-0.743,0.254-1.348,0.762-1.816c0.507-0.469,1.348-0.703,2.52-0.703l14.121,0.059
			c2.891,0,5.498-0.743,7.822-2.227c2.323-1.485,4.248-3.653,5.771-6.504c0.858-1.641,1.289-3.731,1.289-6.27v-14.766
			c-5.273,7.227-12.07,10.84-20.391,10.84c-6.759,0-12.589-2.51-17.49-7.529c-4.902-5.02-7.354-11.064-7.354-18.135
			s2.451-13.105,7.354-18.106c4.901-5,10.731-7.5,17.49-7.5C1303.599,120.728,1310.396,124.322,1315.669,131.509z M1315.669,146.334
			c0-5.781-1.983-10.665-5.947-14.649c-3.965-3.984-8.701-5.977-14.209-5.977s-10.234,2.002-14.18,6.006
			c-3.946,4.004-5.918,8.877-5.918,14.62c0,5.781,1.972,10.674,5.918,14.678c3.945,4.004,8.672,6.006,14.18,6.006
			s10.244-2.002,14.209-6.006C1313.686,157.008,1315.669,152.115,1315.669,146.334z"/>
		<path fill="#346373" stroke="#336373" stroke-width="2" stroke-miterlimit="10" d="M1354.927,99.693v30.293
			c3.125-3.398,6.123-5.791,8.994-7.178c2.871-1.386,6.084-2.08,9.639-2.08c3.828,0,7.08,0.674,9.756,2.021
			c2.675,1.348,4.912,3.418,6.709,6.211c1.796,2.793,2.695,5.733,2.695,8.818v30.528h5.508c1.21,0,2.06,0.225,2.549,0.674
			c0.488,0.449,0.732,1.045,0.732,1.787c0,0.703-0.244,1.289-0.732,1.758c-0.489,0.469-1.339,0.703-2.549,0.703h-15.996
			c-1.211,0-2.071-0.234-2.578-0.703c-0.508-0.469-0.762-1.055-0.762-1.758c0-0.742,0.254-1.338,0.762-1.787
			c0.507-0.449,1.367-0.674,2.578-0.674h5.508V138.13c0-3.554-1.28-6.523-3.838-8.906c-2.559-2.382-6.123-3.574-10.693-3.574
			c-3.595,0-6.66,0.879-9.199,2.637c-1.837,1.25-4.863,4.2-9.082,8.848v31.172h5.566c1.172,0,2.012,0.225,2.52,0.674
			c0.507,0.449,0.762,1.045,0.762,1.787c0,0.703-0.255,1.289-0.762,1.758c-0.508,0.469-1.348,0.703-2.52,0.703h-16.055
			c-1.172,0-2.013-0.234-2.52-0.703c-0.508-0.469-0.762-1.055-0.762-1.758c0-0.742,0.254-1.338,0.762-1.787
			c0.507-0.449,1.348-0.674,2.52-0.674h5.566v-63.633h-6.621c-1.172,0-2.013-0.234-2.52-0.703c-0.508-0.469-0.762-1.074-0.762-1.816
			c0-0.703,0.254-1.289,0.762-1.758c0.507-0.469,1.348-0.703,2.52-0.703H1354.927z"/>
		<path fill="#346373" stroke="#336373" stroke-width="2" stroke-miterlimit="10" d="M1433.032,122.486h26.719
			c1.172,0,2.012,0.234,2.52,0.703c0.507,0.469,0.762,1.075,0.762,1.816c0,0.703-0.255,1.289-0.762,1.758
			c-0.508,0.469-1.348,0.703-2.52,0.703h-26.719v32.754c0,2.852,1.143,5.234,3.428,7.148s5.634,2.871,10.049,2.871
			c3.319,0,6.914-0.498,10.781-1.494s6.875-2.119,9.023-3.369c0.781-0.508,1.426-0.762,1.934-0.762c0.624,0,1.172,0.244,1.641,0.732
			s0.703,1.064,0.703,1.729c0,0.586-0.255,1.133-0.762,1.641c-1.251,1.289-4.287,2.686-9.111,4.189
			c-4.825,1.503-9.443,2.256-13.857,2.256c-5.742,0-10.313-1.348-13.711-4.043s-5.098-6.328-5.098-10.898v-32.754h-9.082
			c-1.172,0-2.013-0.234-2.52-0.703c-0.508-0.469-0.762-1.074-0.762-1.816c0-0.703,0.254-1.289,0.762-1.758
			c0.507-0.469,1.348-0.703,2.52-0.703h9.082v-14.531c0-1.172,0.234-2.011,0.703-2.52c0.469-0.507,1.055-0.762,1.758-0.762
			c0.741,0,1.348,0.254,1.816,0.762c0.469,0.508,0.703,1.348,0.703,2.52V122.486z"/>
	</g>
</g>
<circle fill="none" stroke="#336373" stroke-width="7" stroke-miterlimit="10" cx="142.051" cy="141.732" r="137.501"/>
<path fill="#CA9E67" d="M123.379,103.334c24.271,71.428-13.726,156.865-13.726,156.865l47.714,6.395
	c0,0,30.719-110.32,5.229-159.338C156.393,95.325,147.889,95.2,123.379,103.334z"/>
<path fill="#B17F4A" d="M131.449,124.547c19.709-11.265,21.713,4.12,35.372-0.341l4.861,26.839c0,0-31.309-16.78-39.826,0.34
	l1.655,23.008c12.88-12.256,25.818,10.133,37.38,2.568c0.52,7.121,2.523,22.543-2.908,26.334
	c-8.436,5.891-23.561-14.523-40.673-4.367c-1.837,9.004-6.754,21.406-3.068,18.508c10.894-8.566,30.175,10.715,41.324,1.871
	c5.391-4.279,0.207,22.311-4.713,27.123c-8.715,8.518-27.341-14.031-43.691-5.535C137.75,199.719,136.678,157.553,131.449,124.547z"
	/>
<path fill="#3AAA35" d="M133.511,64.45c10.912-8.17,25.576-1.329,43.464,6.535c27.123,5.882,56.535,8.169,62.092,90.521
	c-25.92-30.281-52.082-50.451-79.469-57.238c-13.67,5.275-22.167-5.183-33.001,4.306c-35.294,11.438-52.237,30.711-65.636,79.076
	c-14.38-24.74-21.896-74.183,22.222-101.633C96.072,72.913,118.104,61.523,133.511,64.45z"/>
<path fill="#006633" d="M27.956,92.231c0,0,43.79-76.475,102.613-28.436c40.85-74.023,100.328-9.146,100.328-9.146
	s-39.545-9.484-55.883,18.62c-13.072-7.193-33.742-10.458-42.811-3.922c-15.36-3.595-34.968,7.513-47.059,18.627
	C66.189,71.961,27.956,92.231,27.956,92.231z"/>
<path fill="none" stroke="#336373" stroke-width="7" stroke-miterlimit="10" d="M27.956,92.231c0,0,43.79-76.475,102.613-28.436
	c40.85-74.023,100.328-9.146,100.328-9.146s-37.584-11.769-53.922,16.336c27.123,5.882,56.535,8.169,62.092,90.521
	c-25.92-30.281-52.082-50.451-79.469-57.238c10.783,23.856,22.279,63.632-2.23,162.326c-14.788-3.617-28.433-5.088-47.714-6.395
	c34.313-71.57,23.284-142.528,16.943-151.625c-35.294,11.438-52.237,30.711-65.636,79.076
	c-14.38-24.74-21.896-74.183,22.222-101.633C64.229,70.004,27.956,92.231,27.956,92.231z"/>
</svg>
